<?xml version="1.0" encoding="UTF-8" standalone="no"?>
<svg width="128" height="128" viewBox="0 0 128 128" fill="none" xmlns="http://www.w3.org/2000/svg">
  <!-- Background -->
  <rect width="128" height="128" rx="16" fill="#3B7EA1"/>
  
  <!-- Vivarium fish shape -->
  <path d="M94 64C94 78.2 86 88 64 88C42 88 34 78.2 34 64C34 49.8 42 40 64 40C86 40 94 49.8 94 64Z" fill="white"/>
  <ellipse cx="52" cy="58" rx="6" ry="6" fill="#3B7EA1"/>
  <ellipse cx="76" cy="58" rx="6" ry="6" fill="#3B7EA1"/>
  
  <!-- Plants -->
  <path d="M26 110C26 110 30 90 26 70C22 90 26 110 26 110Z" fill="#4CAF50"/>
  <path d="M32 110C32 110 36 85 32 60C28 85 32 110 32 110Z" fill="#4CAF50"/>
  
  <!-- Bubbles -->
  <circle cx="100" cy="40" r="4" fill="#DDDDDD" fill-opacity="0.8"/>
  <circle cx="104" cy="55" r="2" fill="#DDDDDD" fill-opacity="0.8"/>
  <circle cx="98" cy="70" r="3" fill="#DDDDDD" fill-opacity="0.8"/>
</svg>
